<svg id="Layer_2" data-name="Layer 2" xmlns="http://www.w3.org/2000/svg" viewBox="0 0 15.88 15.73"><rect x="0.38" y="7.79" width="3.78" height="3.78" fill="#fbb040" stroke="#fff" strokeMiterlimit="10" strokeWidth="0.75"/><rect x="4.16" y="7.79" width="3.78" height="3.78" fill="#eae024" stroke="#fff" strokeMiterlimit="10" strokeWidth="0.75"/><rect x="4.16" y="11.56" width="3.78" height="3.78" fill="#f7941d" stroke="#fff" strokeMiterlimit="10" strokeWidth="0.75"/><rect x="7.94" y="7.8" width="3.78" height="3.78" fill="#ed1c24" stroke="#fff" strokeMiterlimit="10" strokeWidth="0.75"/><rect x="11.73" y="7.8" width="3.78" height="3.78" fill="#f15a29" stroke="#fff" strokeMiterlimit="10" strokeWidth="0.75"/><rect x="11.73" y="11.57" width="3.78" height="3.78" fill="#eae024" stroke="#fff" strokeMiterlimit="10" strokeWidth="0.75"/><rect x="7.94" y="11.57" width="3.78" height="3.78" fill="#f7941d" stroke="#fff" strokeMiterlimit="10" strokeWidth="0.75"/><rect x="0.38" y="11.57" width="3.78" height="3.78" fill="#eae024" stroke="#fff" strokeMiterlimit="10" strokeWidth="0.75"/><rect x="0.38" y="0.38" width="3.78" height="3.78" fill="#eae024" stroke="#fff" strokeMiterlimit="10" strokeWidth="0.75"/><rect x="4.16" y="0.38" width="3.78" height="3.78" fill="#eae024" stroke="#fff" strokeMiterlimit="10" strokeWidth="0.75"/><rect x="4.16" y="4.14" width="3.78" height="3.78" fill="#f7941d" stroke="#fff" strokeMiterlimit="10" strokeWidth="0.75"/><rect x="7.94" y="0.38" width="3.78" height="3.78" fill="#fbb040" stroke="#fff" strokeMiterlimit="10" strokeWidth="0.75"/><rect x="11.73" y="0.38" width="3.78" height="3.78" fill="#eae024" stroke="#fff" strokeMiterlimit="10" strokeWidth="0.75"/><rect x="11.73" y="4.15" width="3.78" height="3.78" fill="#fbb040" stroke="#fff" strokeMiterlimit="10" strokeWidth="0.75"/><rect x="7.94" y="4.15" width="3.78" height="3.78" fill="#ed1c24" stroke="#fff" strokeMiterlimit="10" strokeWidth="0.75"/><rect x="0.38" y="4.15" width="3.78" height="3.78" fill="#eae024" stroke="#fff" strokeMiterlimit="10" strokeWidth="0.75"/></svg>